<?xml version="1.0" encoding="UTF-8"?>
<svg xmlns="http://www.w3.org/2000/svg" viewBox="0 0 1100 780" width="1100" height="780">
<rect width="1100" height="780" fill="#fafafa"/>
<line x1="0" y1="0" x2="0" y2="780" stroke="#ececec" stroke-width="0.6"/>
<line x1="20" y1="0" x2="20" y2="780" stroke="#ececec" stroke-width="0.6"/>
<line x1="40" y1="0" x2="40" y2="780" stroke="#ececec" stroke-width="0.6"/>
<line x1="60" y1="0" x2="60" y2="780" stroke="#ececec" stroke-width="0.6"/>
<line x1="80" y1="0" x2="80" y2="780" stroke="#ececec" stroke-width="0.6"/>
<line x1="100" y1="0" x2="100" y2="780" stroke="#ececec" stroke-width="0.6"/>
<line x1="120" y1="0" x2="120" y2="780" stroke="#ececec" stroke-width="0.6"/>
<line x1="140" y1="0" x2="140" y2="780" stroke="#ececec" stroke-width="0.6"/>
<line x1="160" y1="0" x2="160" y2="780" stroke="#ececec" stroke-width="0.6"/>
<line x1="180" y1="0" x2="180" y2="780" stroke="#ececec" stroke-width="0.6"/>
<line x1="200" y1="0" x2="200" y2="780" stroke="#ececec" stroke-width="0.6"/>
<line x1="220" y1="0" x2="220" y2="780" stroke="#ececec" stroke-width="0.6"/>
<line x1="240" y1="0" x2="240" y2="780" stroke="#ececec" stroke-width="0.6"/>
<line x1="260" y1="0" x2="260" y2="780" stroke="#ececec" stroke-width="0.6"/>
<line x1="280" y1="0" x2="280" y2="780" stroke="#ececec" stroke-width="0.6"/>
<line x1="300" y1="0" x2="300" y2="780" stroke="#ececec" stroke-width="0.6"/>
<line x1="320" y1="0" x2="320" y2="780" stroke="#ececec" stroke-width="0.6"/>
<line x1="340" y1="0" x2="340" y2="780" stroke="#ececec" stroke-width="0.6"/>
<line x1="360" y1="0" x2="360" y2="780" stroke="#ececec" stroke-width="0.6"/>
<line x1="380" y1="0" x2="380" y2="780" stroke="#ececec" stroke-width="0.6"/>
<line x1="400" y1="0" x2="400" y2="780" stroke="#ececec" stroke-width="0.6"/>
<line x1="420" y1="0" x2="420" y2="780" stroke="#ececec" stroke-width="0.6"/>
<line x1="440" y1="0" x2="440" y2="780" stroke="#ececec" stroke-width="0.6"/>
<line x1="460" y1="0" x2="460" y2="780" stroke="#ececec" stroke-width="0.6"/>
<line x1="480" y1="0" x2="480" y2="780" stroke="#ececec" stroke-width="0.6"/>
<line x1="500" y1="0" x2="500" y2="780" stroke="#ececec" stroke-width="0.6"/>
<line x1="520" y1="0" x2="520" y2="780" stroke="#ececec" stroke-width="0.6"/>
<line x1="540" y1="0" x2="540" y2="780" stroke="#ececec" stroke-width="0.6"/>
<line x1="560" y1="0" x2="560" y2="780" stroke="#ececec" stroke-width="0.6"/>
<line x1="580" y1="0" x2="580" y2="780" stroke="#ececec" stroke-width="0.6"/>
<line x1="600" y1="0" x2="600" y2="780" stroke="#ececec" stroke-width="0.6"/>
<line x1="620" y1="0" x2="620" y2="780" stroke="#ececec" stroke-width="0.6"/>
<line x1="640" y1="0" x2="640" y2="780" stroke="#ececec" stroke-width="0.6"/>
<line x1="660" y1="0" x2="660" y2="780" stroke="#ececec" stroke-width="0.6"/>
<line x1="680" y1="0" x2="680" y2="780" stroke="#ececec" stroke-width="0.6"/>
<line x1="700" y1="0" x2="700" y2="780" stroke="#ececec" stroke-width="0.6"/>
<line x1="720" y1="0" x2="720" y2="780" stroke="#ececec" stroke-width="0.6"/>
<line x1="740" y1="0" x2="740" y2="780" stroke="#ececec" stroke-width="0.6"/>
<line x1="760" y1="0" x2="760" y2="780" stroke="#ececec" stroke-width="0.6"/>
<line x1="780" y1="0" x2="780" y2="780" stroke="#ececec" stroke-width="0.6"/>
<line x1="800" y1="0" x2="800" y2="780" stroke="#ececec" stroke-width="0.6"/>
<line x1="820" y1="0" x2="820" y2="780" stroke="#ececec" stroke-width="0.6"/>
<line x1="840" y1="0" x2="840" y2="780" stroke="#ececec" stroke-width="0.6"/>
<line x1="860" y1="0" x2="860" y2="780" stroke="#ececec" stroke-width="0.6"/>
<line x1="880" y1="0" x2="880" y2="780" stroke="#ececec" stroke-width="0.6"/>
<line x1="900" y1="0" x2="900" y2="780" stroke="#ececec" stroke-width="0.6"/>
<line x1="920" y1="0" x2="920" y2="780" stroke="#ececec" stroke-width="0.6"/>
<line x1="940" y1="0" x2="940" y2="780" stroke="#ececec" stroke-width="0.6"/>
<line x1="960" y1="0" x2="960" y2="780" stroke="#ececec" stroke-width="0.6"/>
<line x1="980" y1="0" x2="980" y2="780" stroke="#ececec" stroke-width="0.6"/>
<line x1="1000" y1="0" x2="1000" y2="780" stroke="#ececec" stroke-width="0.6"/>
<line x1="1020" y1="0" x2="1020" y2="780" stroke="#ececec" stroke-width="0.6"/>
<line x1="1040" y1="0" x2="1040" y2="780" stroke="#ececec" stroke-width="0.6"/>
<line x1="1060" y1="0" x2="1060" y2="780" stroke="#ececec" stroke-width="0.6"/>
<line x1="1080" y1="0" x2="1080" y2="780" stroke="#ececec" stroke-width="0.6"/>
<line x1="1100" y1="0" x2="1100" y2="780" stroke="#ececec" stroke-width="0.6"/>
<line x1="0" y1="0" x2="1100" y2="0" stroke="#ececec" stroke-width="0.6"/>
<line x1="0" y1="20" x2="1100" y2="20" stroke="#ececec" stroke-width="0.6"/>
<line x1="0" y1="40" x2="1100" y2="40" stroke="#ececec" stroke-width="0.6"/>
<line x1="0" y1="60" x2="1100" y2="60" stroke="#ececec" stroke-width="0.6"/>
<line x1="0" y1="80" x2="1100" y2="80" stroke="#ececec" stroke-width="0.6"/>
<line x1="0" y1="100" x2="1100" y2="100" stroke="#ececec" stroke-width="0.6"/>
<line x1="0" y1="120" x2="1100" y2="120" stroke="#ececec" stroke-width="0.6"/>
<line x1="0" y1="140" x2="1100" y2="140" stroke="#ececec" stroke-width="0.6"/>
<line x1="0" y1="160" x2="1100" y2="160" stroke="#ececec" stroke-width="0.6"/>
<line x1="0" y1="180" x2="1100" y2="180" stroke="#ececec" stroke-width="0.6"/>
<line x1="0" y1="200" x2="1100" y2="200" stroke="#ececec" stroke-width="0.6"/>
<line x1="0" y1="220" x2="1100" y2="220" stroke="#ececec" stroke-width="0.6"/>
<line x1="0" y1="240" x2="1100" y2="240" stroke="#ececec" stroke-width="0.6"/>
<line x1="0" y1="260" x2="1100" y2="260" stroke="#ececec" stroke-width="0.6"/>
<line x1="0" y1="280" x2="1100" y2="280" stroke="#ececec" stroke-width="0.6"/>
<line x1="0" y1="300" x2="1100" y2="300" stroke="#ececec" stroke-width="0.6"/>
<line x1="0" y1="320" x2="1100" y2="320" stroke="#ececec" stroke-width="0.6"/>
<line x1="0" y1="340" x2="1100" y2="340" stroke="#ececec" stroke-width="0.6"/>
<line x1="0" y1="360" x2="1100" y2="360" stroke="#ececec" stroke-width="0.6"/>
<line x1="0" y1="380" x2="1100" y2="380" stroke="#ececec" stroke-width="0.6"/>
<line x1="0" y1="400" x2="1100" y2="400" stroke="#ececec" stroke-width="0.6"/>
<line x1="0" y1="420" x2="1100" y2="420" stroke="#ececec" stroke-width="0.6"/>
<line x1="0" y1="440" x2="1100" y2="440" stroke="#ececec" stroke-width="0.6"/>
<line x1="0" y1="460" x2="1100" y2="460" stroke="#ececec" stroke-width="0.6"/>
<line x1="0" y1="480" x2="1100" y2="480" stroke="#ececec" stroke-width="0.6"/>
<line x1="0" y1="500" x2="1100" y2="500" stroke="#ececec" stroke-width="0.6"/>
<line x1="0" y1="520" x2="1100" y2="520" stroke="#ececec" stroke-width="0.6"/>
<line x1="0" y1="540" x2="1100" y2="540" stroke="#ececec" stroke-width="0.6"/>
<line x1="0" y1="560" x2="1100" y2="560" stroke="#ececec" stroke-width="0.6"/>
<line x1="0" y1="580" x2="1100" y2="580" stroke="#ececec" stroke-width="0.6"/>
<line x1="0" y1="600" x2="1100" y2="600" stroke="#ececec" stroke-width="0.6"/>
<line x1="0" y1="620" x2="1100" y2="620" stroke="#ececec" stroke-width="0.6"/>
<line x1="0" y1="640" x2="1100" y2="640" stroke="#ececec" stroke-width="0.6"/>
<line x1="0" y1="660" x2="1100" y2="660" stroke="#ececec" stroke-width="0.6"/>
<line x1="0" y1="680" x2="1100" y2="680" stroke="#ececec" stroke-width="0.6"/>
<line x1="0" y1="700" x2="1100" y2="700" stroke="#ececec" stroke-width="0.6"/>
<line x1="0" y1="720" x2="1100" y2="720" stroke="#ececec" stroke-width="0.6"/>
<line x1="0" y1="740" x2="1100" y2="740" stroke="#ececec" stroke-width="0.6"/>
<line x1="0" y1="760" x2="1100" y2="760" stroke="#ececec" stroke-width="0.6"/>
<line x1="0" y1="780" x2="1100" y2="780" stroke="#ececec" stroke-width="0.6"/>
<rect x="70.0" y="24" width="226.5" height="56" rx="8" fill="#f8cecc" stroke="#b85450" stroke-width="1.5"/>
<text x="183.25" y="57.0" text-anchor="middle" fill="#7a2e2a" font-family="Microsoft YaHei, PingFang SC, Noto Sans SC, sans-serif" font-size="13" font-weight="700">Vue / 企业用户</text>
<rect x="314.5" y="24" width="226.5" height="56" rx="8" fill="#f8cecc" stroke="#b85450" stroke-width="1.5"/>
<text x="427.75" y="57.0" text-anchor="middle" fill="#7a2e2a" font-family="Microsoft YaHei, PingFang SC, Noto Sans SC, sans-serif" font-size="13" font-weight="700">飞书 / 聊天 APP</text>
<rect x="559.0" y="24" width="226.5" height="56" rx="8" fill="#f8cecc" stroke="#b85450" stroke-width="1.5"/>
<text x="672.25" y="57.0" text-anchor="middle" fill="#7a2e2a" font-family="Microsoft YaHei, PingFang SC, Noto Sans SC, sans-serif" font-size="13" font-weight="700">商城</text>
<rect x="803.5" y="24" width="226.5" height="56" rx="8" fill="#f8cecc" stroke="#b85450" stroke-width="1.5"/>
<text x="916.75" y="57.0" text-anchor="middle" fill="#7a2e2a" font-family="Microsoft YaHei, PingFang SC, Noto Sans SC, sans-serif" font-size="13" font-weight="700">工单系统</text>
<rect x="24" y="100" width="56" height="656" rx="10" fill="#d5e8d4" stroke="#82b366" stroke-width="1.5"/>
<text x="52.0" y="428.0" text-anchor="middle" fill="#b85450" font-family="Microsoft YaHei,PingFang SC,sans-serif" font-size="16" font-weight="700" transform="rotate(-90 52.0 428.0)">配置中心</text>
<text x="52.0" y="728" text-anchor="middle" fill="#666" font-family="Microsoft YaHei, PingFang SC, Noto Sans SC, sans-serif" font-size="9" font-weight="400"></text>
<text x="52.0" y="742" text-anchor="middle" fill="#666" font-family="Microsoft YaHei, PingFang SC, Noto Sans SC, sans-serif" font-size="9" font-weight="400"></text>
<rect x="1020" y="100" width="56" height="656" rx="10" fill="#f8cecc" stroke="#b85450" stroke-width="1.5"/>
<text x="1048.0" y="428.0" text-anchor="middle" fill="#b85450" font-family="Microsoft YaHei,PingFang SC,sans-serif" font-size="16" font-weight="700" transform="rotate(-90 1048.0 428.0)">注册中心</text>
<text x="1048.0" y="728" text-anchor="middle" fill="#666" font-family="Microsoft YaHei, PingFang SC, Noto Sans SC, sans-serif" font-size="9" font-weight="400"></text>
<text x="1048.0" y="742" text-anchor="middle" fill="#666" font-family="Microsoft YaHei, PingFang SC, Noto Sans SC, sans-serif" font-size="9" font-weight="400"></text>
<rect x="94" y="100.0" width="912" height="123.2" rx="8" fill="#ffe6cc" stroke="#d79b00" stroke-width="1.5"/>
<text x="550.0" y="122.0" text-anchor="middle" fill="#1a1a1a" font-family="Microsoft YaHei, PingFang SC, Noto Sans SC, sans-serif" font-size="15" font-weight="700">网关层</text>
<rect x="976" y="108.0" width="14" height="14" fill="#f1c40f" stroke="#b7950b" stroke-width="1" transform="rotate(15 984 116.0)"/>
<rect x="114.0" y="136.0" width="207.5" height="75.2" rx="4" fill="#ffffff" stroke="#333333" stroke-width="1.2"/>
<text x="217.75" y="169.6" text-anchor="middle" fill="#1a1a1a" font-family="Microsoft YaHei, PingFang SC, Noto Sans SC, sans-serif" font-size="12" font-weight="700">NetScaler / Nginx</text>
<text x="217.75" y="187.6" text-anchor="middle" fill="#555555" font-family="Microsoft YaHei, PingFang SC, Noto Sans SC, sans-serif" font-size="10" font-weight="400">负载均衡</text>
<rect x="335.5" y="136.0" width="207.5" height="75.2" rx="4" fill="#ffffff" stroke="#333333" stroke-width="1.2"/>
<text x="439.25" y="169.6" text-anchor="middle" fill="#1a1a1a" font-family="Microsoft YaHei, PingFang SC, Noto Sans SC, sans-serif" font-size="12" font-weight="700">FastAPI Gateway</text>
<text x="439.25" y="187.6" text-anchor="middle" fill="#555555" font-family="Microsoft YaHei, PingFang SC, Noto Sans SC, sans-serif" font-size="10" font-weight="400">请求接入</text>
<rect x="557.0" y="136.0" width="207.5" height="75.2" rx="4" fill="#ffffff" stroke="#333333" stroke-width="1.2"/>
<text x="660.75" y="169.6" text-anchor="middle" fill="#1a1a1a" font-family="Microsoft YaHei, PingFang SC, Noto Sans SC, sans-serif" font-size="12" font-weight="700">SSE Gateway</text>
<text x="660.75" y="187.6" text-anchor="middle" fill="#555555" font-family="Microsoft YaHei, PingFang SC, Noto Sans SC, sans-serif" font-size="10" font-weight="400">流式回写</text>
<rect x="778.5" y="136.0" width="207.5" height="75.2" rx="4" fill="#ffffff" stroke="#333333" stroke-width="1.2"/>
<text x="882.25" y="169.6" text-anchor="middle" fill="#1a1a1a" font-family="Microsoft YaHei, PingFang SC, Noto Sans SC, sans-serif" font-size="12" font-weight="700">LLM Gateway</text>
<text x="882.25" y="187.6" text-anchor="middle" fill="#555555" font-family="Microsoft YaHei, PingFang SC, Noto Sans SC, sans-serif" font-size="10" font-weight="400">模型路由</text>
<rect x="94" y="233.2" width="912" height="123.2" rx="8" fill="#d5e8d4" stroke="#82b366" stroke-width="1.5"/>
<text x="550.0" y="255.2" text-anchor="middle" fill="#1a1a1a" font-family="Microsoft YaHei, PingFang SC, Noto Sans SC, sans-serif" font-size="15" font-weight="700">编排调度层</text>
<rect x="976" y="241.2" width="14" height="14" fill="#f1c40f" stroke="#b7950b" stroke-width="1" transform="rotate(15 984 249.2)"/>
<rect x="114.0" y="269.2" width="207.5" height="75.2" rx="4" fill="#ffffff" stroke="#333333" stroke-width="1.2"/>
<text x="217.75" y="302.8" text-anchor="middle" fill="#1a1a1a" font-family="Microsoft YaHei, PingFang SC, Noto Sans SC, sans-serif" font-size="12" font-weight="700">服务治理 </text>
<text x="217.75" y="320.8" text-anchor="middle" fill="#555555" font-family="Microsoft YaHei, PingFang SC, Noto Sans SC, sans-serif" font-size="10" font-weight="400">限流 · 会话锁 · 幂等</text>
<rect x="335.5" y="269.2" width="207.5" height="75.2" rx="4" fill="#ffffff" stroke="#333333" stroke-width="1.2"/>
<text x="439.25" y="302.8" text-anchor="middle" fill="#1a1a1a" font-family="Microsoft YaHei, PingFang SC, Noto Sans SC, sans-serif" font-size="12" font-weight="700">Agent Run Queue</text>
<text x="439.25" y="320.8" text-anchor="middle" fill="#555555" font-family="Microsoft YaHei, PingFang SC, Noto Sans SC, sans-serif" font-size="10" font-weight="400">任务队列</text>
<rect x="557.0" y="269.2" width="207.5" height="75.2" rx="4" fill="#ffffff" stroke="#333333" stroke-width="1.2"/>
<text x="660.75" y="302.8" text-anchor="middle" fill="#1a1a1a" font-family="Microsoft YaHei, PingFang SC, Noto Sans SC, sans-serif" font-size="12" font-weight="700">Agent Worker</text>
<text x="660.75" y="320.8" text-anchor="middle" fill="#555555" font-family="Microsoft YaHei, PingFang SC, Noto Sans SC, sans-serif" font-size="10" font-weight="400">规划与执行</text>
<rect x="778.5" y="269.2" width="207.5" height="75.2" rx="4" fill="#ffffff" stroke="#333333" stroke-width="1.2"/>
<text x="882.25" y="302.8" text-anchor="middle" fill="#1a1a1a" font-family="Microsoft YaHei, PingFang SC, Noto Sans SC, sans-serif" font-size="12" font-weight="700">SSE Event Stream</text>
<text x="882.25" y="320.8" text-anchor="middle" fill="#555555" font-family="Microsoft YaHei, PingFang SC, Noto Sans SC, sans-serif" font-size="10" font-weight="400">事件流</text>
<rect x="94" y="366.4" width="912" height="123.2" rx="8" fill="#82b366" stroke="#507e32" stroke-width="1.5"/>
<text x="550.0" y="388.4" text-anchor="middle" fill="#1a1a1a" font-family="Microsoft YaHei, PingFang SC, Noto Sans SC, sans-serif" font-size="15" font-weight="700">Agent运行时</text>
<rect x="976" y="374.4" width="14" height="14" fill="#f1c40f" stroke="#b7950b" stroke-width="1" transform="rotate(15 984 382.4)"/>
<rect x="114.0" y="402.4" width="207.5" height="75.2" rx="4" fill="#ffffff" stroke="#333333" stroke-width="1.2"/>
<text x="217.75" y="436.0" text-anchor="middle" fill="#1a1a1a" font-family="Microsoft YaHei, PingFang SC, Noto Sans SC, sans-serif" font-size="12" font-weight="700">意图理解</text>
<text x="217.75" y="454.0" text-anchor="middle" fill="#555555" font-family="Microsoft YaHei, PingFang SC, Noto Sans SC, sans-serif" font-size="10" font-weight="400">规划 · 路由 · 调度</text>
<rect x="335.5" y="402.4" width="207.5" height="75.2" rx="4" fill="#ffffff" stroke="#333333" stroke-width="1.2"/>
<text x="439.25" y="436.0" text-anchor="middle" fill="#1a1a1a" font-family="Microsoft YaHei, PingFang SC, Noto Sans SC, sans-serif" font-size="12" font-weight="700">Memory系统</text>
<text x="439.25" y="454.0" text-anchor="middle" fill="#555555" font-family="Microsoft YaHei, PingFang SC, Noto Sans SC, sans-serif" font-size="10" font-weight="400">对话连续性 · 上下文管理</text>
<rect x="557.0" y="402.4" width="207.5" height="75.2" rx="4" fill="#ffffff" stroke="#333333" stroke-width="1.2"/>
<text x="660.75" y="436.0" text-anchor="middle" fill="#1a1a1a" font-family="Microsoft YaHei, PingFang SC, Noto Sans SC, sans-serif" font-size="12" font-weight="700">能力和工具</text>
<text x="660.75" y="454.0" text-anchor="middle" fill="#555555" font-family="Microsoft YaHei, PingFang SC, Noto Sans SC, sans-serif" font-size="10" font-weight="400">能力集成 · 安全沙箱执行</text>
<rect x="778.5" y="402.4" width="207.5" height="75.2" rx="4" fill="#ffffff" stroke="#333333" stroke-width="1.2"/>
<text x="882.25" y="436.0" text-anchor="middle" fill="#1a1a1a" font-family="Microsoft YaHei, PingFang SC, Noto Sans SC, sans-serif" font-size="12" font-weight="700">权限控制</text>
<text x="882.25" y="454.0" text-anchor="middle" fill="#555555" font-family="Microsoft YaHei, PingFang SC, Noto Sans SC, sans-serif" font-size="10" font-weight="400">角色、功能细粒度控制</text>
<rect x="94" y="499.59999999999997" width="912" height="123.2" rx="8" fill="#dae8fc" stroke="#6c8ebf" stroke-width="1.5"/>
<text x="550.0" y="521.5999999999999" text-anchor="middle" fill="#1a1a1a" font-family="Microsoft YaHei, PingFang SC, Noto Sans SC, sans-serif" font-size="15" font-weight="700">数据访问层</text>
<rect x="976" y="507.5999999999999" width="14" height="14" fill="#f1c40f" stroke="#b7950b" stroke-width="1" transform="rotate(15 984 515.5999999999999)"/>
<rect x="114.0" y="535.5999999999999" width="207.5" height="75.2" rx="4" fill="#ffffff" stroke="#333333" stroke-width="1.2"/>
<text x="217.75" y="569.1999999999999" text-anchor="middle" fill="#1a1a1a" font-family="Microsoft YaHei, PingFang SC, Noto Sans SC, sans-serif" font-size="12" font-weight="700">RAG 检索</text>
<text x="217.75" y="587.1999999999999" text-anchor="middle" fill="#555555" font-family="Microsoft YaHei, PingFang SC, Noto Sans SC, sans-serif" font-size="10" font-weight="400">知识召回</text>
<rect x="335.5" y="535.5999999999999" width="207.5" height="75.2" rx="4" fill="#ffffff" stroke="#333333" stroke-width="1.2"/>
<text x="439.25" y="569.1999999999999" text-anchor="middle" fill="#1a1a1a" font-family="Microsoft YaHei, PingFang SC, Noto Sans SC, sans-serif" font-size="12" font-weight="700">Checkpoint</text>
<text x="439.25" y="587.1999999999999" text-anchor="middle" fill="#555555" font-family="Microsoft YaHei, PingFang SC, Noto Sans SC, sans-serif" font-size="10" font-weight="400">状态检查点</text>
<rect x="557.0" y="535.5999999999999" width="207.5" height="75.2" rx="4" fill="#ffffff" stroke="#333333" stroke-width="1.2"/>
<text x="660.75" y="569.1999999999999" text-anchor="middle" fill="#1a1a1a" font-family="Microsoft YaHei, PingFang SC, Noto Sans SC, sans-serif" font-size="12" font-weight="700">会话 / 长期记忆</text>
<text x="660.75" y="587.1999999999999" text-anchor="middle" fill="#555555" font-family="Microsoft YaHei, PingFang SC, Noto Sans SC, sans-serif" font-size="10" font-weight="400">上下文读写</text>
<rect x="778.5" y="535.5999999999999" width="207.5" height="75.2" rx="4" fill="#ffffff" stroke="#333333" stroke-width="1.2"/>
<text x="882.25" y="569.1999999999999" text-anchor="middle" fill="#1a1a1a" font-family="Microsoft YaHei, PingFang SC, Noto Sans SC, sans-serif" font-size="12" font-weight="700">Eval Outbox</text>
<text x="882.25" y="587.1999999999999" text-anchor="middle" fill="#555555" font-family="Microsoft YaHei, PingFang SC, Noto Sans SC, sans-serif" font-size="10" font-weight="400">评测投递</text>
<rect x="94" y="632.8" width="912" height="123.2" rx="8" fill="#e1d5e7" stroke="#9673a6" stroke-width="1.5"/>
<text x="550.0" y="654.8" text-anchor="middle" fill="#1a1a1a" font-family="Microsoft YaHei, PingFang SC, Noto Sans SC, sans-serif" font-size="15" font-weight="700">持久化与观测层</text>
<rect x="976" y="640.8" width="14" height="14" fill="#f1c40f" stroke="#b7950b" stroke-width="1" transform="rotate(15 984 648.8)"/>
<path d="M179.75,672.8 L179.75,730.8 A38,9 0 0 0 255.75,730.8 L255.75,672.8 Z" fill="#ffffff" stroke="#333" stroke-width="1.2"/>
<ellipse cx="217.75" cy="672.8" rx="38" ry="9" fill="#ffffff" stroke="#333" stroke-width="1.2"/>
<ellipse cx="217.75" cy="730.8" rx="38" ry="9" fill="none" stroke="#333" stroke-width="1.2"/>
<text x="217.75" y="696.6999999999999" text-anchor="middle" fill="#1a1a1a" font-family="Microsoft YaHei, PingFang SC, Noto Sans SC, sans-serif" font-size="12" font-weight="700">PostgreSQL</text>
<text x="217.75" y="714.6999999999999" text-anchor="middle" fill="#555555" font-family="Microsoft YaHei, PingFang SC, Noto Sans SC, sans-serif" font-size="9" font-weight="400">业务 · Checkpoint</text>
<path d="M401.25,672.8 L401.25,730.8 A38,9 0 0 0 477.25,730.8 L477.25,672.8 Z" fill="#ffffff" stroke="#333" stroke-width="1.2"/>
<ellipse cx="439.25" cy="672.8" rx="38" ry="9" fill="#ffffff" stroke="#333" stroke-width="1.2"/>
<ellipse cx="439.25" cy="730.8" rx="38" ry="9" fill="none" stroke="#333" stroke-width="1.2"/>
<text x="439.25" y="696.6999999999999" text-anchor="middle" fill="#1a1a1a" font-family="Microsoft YaHei, PingFang SC, Noto Sans SC, sans-serif" font-size="12" font-weight="700">Redis</text>
<text x="439.25" y="714.6999999999999" text-anchor="middle" fill="#555555" font-family="Microsoft YaHei, PingFang SC, Noto Sans SC, sans-serif" font-size="9" font-weight="400">会话状态</text>
<path d="M622.75,672.8 L622.75,730.8 A38,9 0 0 0 698.75,730.8 L698.75,672.8 Z" fill="#ffffff" stroke="#333" stroke-width="1.2"/>
<ellipse cx="660.75" cy="672.8" rx="38" ry="9" fill="#ffffff" stroke="#333" stroke-width="1.2"/>
<ellipse cx="660.75" cy="730.8" rx="38" ry="9" fill="none" stroke="#333" stroke-width="1.2"/>
<text x="660.75" y="696.6999999999999" text-anchor="middle" fill="#1a1a1a" font-family="Microsoft YaHei, PingFang SC, Noto Sans SC, sans-serif" font-size="12" font-weight="700">向量索引</text>
<text x="660.75" y="714.6999999999999" text-anchor="middle" fill="#555555" font-family="Microsoft YaHei, PingFang SC, Noto Sans SC, sans-serif" font-size="9" font-weight="400">RAG 向量</text>
<path d="M844.25,672.8 L844.25,730.8 A38,9 0 0 0 920.25,730.8 L920.25,672.8 Z" fill="#ffffff" stroke="#333" stroke-width="1.2"/>
<ellipse cx="882.25" cy="672.8" rx="38" ry="9" fill="#ffffff" stroke="#333" stroke-width="1.2"/>
<ellipse cx="882.25" cy="730.8" rx="38" ry="9" fill="none" stroke="#333" stroke-width="1.2"/>
<text x="882.25" y="696.6999999999999" text-anchor="middle" fill="#1a1a1a" font-family="Microsoft YaHei, PingFang SC, Noto Sans SC, sans-serif" font-size="12" font-weight="700">Langfuse</text>
<text x="882.25" y="714.6999999999999" text-anchor="middle" fill="#555555" font-family="Microsoft YaHei, PingFang SC, Noto Sans SC, sans-serif" font-size="9" font-weight="400">Trace · Score</text>
</svg>