<?xml version="1.0" encoding="UTF-8"?>
<svg xmlns="http://www.w3.org/2000/svg" viewBox="0 0 1280 1090" width="1280" height="1090">
<defs>
<style type="text/css"><![CDATA[
.lbl-main{font:700 13px "Microsoft YaHei","PingFang SC","Noto Sans SC",sans-serif;fill:#fff;}
.lbl-sub{font:600 11px "Microsoft YaHei","PingFang SC","Noto Sans SC",sans-serif;fill:#e8f0ff;}
.h1{font:700 14px "Microsoft YaHei","PingFang SC","Noto Sans SC",sans-serif;fill:#1a2332;}
.h2{font:700 12px "Microsoft YaHei","PingFang SC","Noto Sans SC",sans-serif;fill:#243044;}
.body{font:11px "Microsoft YaHei","PingFang SC","Noto Sans SC",sans-serif;fill:#4a5568;}
.tiny{font:10px "Microsoft YaHei","PingFang SC","Noto Sans SC",sans-serif;fill:#6b7785;}
.sec{font:700 13px "Microsoft YaHei","PingFang SC","Noto Sans SC",sans-serif;fill:#1e3a8a;}
.flow{font:600 12px "Microsoft YaHei","PingFang SC","Noto Sans SC",sans-serif;fill:#2563eb;}
.white{font:600 12px "Microsoft YaHei","PingFang SC","Noto Sans SC",sans-serif;fill:#fff;}
.wsm{font:11px "Microsoft YaHei","PingFang SC","Noto Sans SC",sans-serif;fill:#fff;}
]]></style>
<marker id="arr" markerWidth="8" markerHeight="8" refX="7" refY="3" orient="auto"><path d="M0,0 L7,3 L0,6 Z" fill="#3b82f6"/></marker>
</defs>
<rect x="0" y="0" width="1280" height="1090" rx="0" fill="#f0f3f8"/>
<!-- 价值层 -->
<rect x="8" y="16" width="1114" height="110" rx="10" fill="#e8f1ff" stroke="#b6c9ef" stroke-width="1"/>
<rect x="16" y="28" width="70" height="86" rx="8" fill="#1e40af"/>
<text x="51" y="58" class="lbl-main" text-anchor="middle">价值层</text>
<text x="51" y="78" class="lbl-sub" text-anchor="middle">业务效果</text>
<circle cx="201.0" cy="48" r="15" fill="#2563eb" opacity="0.18"/>
<circle cx="201.0" cy="48" r="10" fill="#2563eb"/>
<text x="201.0" y="84" class="h1" text-anchor="middle">降本增效</text>
<text x="201.0" y="104" class="tiny" text-anchor="middle">人效提升 50%+</text>
<circle cx="389.0" cy="48" r="15" fill="#2563eb" opacity="0.18"/>
<circle cx="389.0" cy="48" r="10" fill="#2563eb"/>
<text x="389.0" y="84" class="h1" text-anchor="middle">提高交付</text>
<text x="389.0" y="104" class="tiny" text-anchor="middle">交期及时率提升</text>
<circle cx="577.0" cy="48" r="15" fill="#2563eb" opacity="0.18"/>
<circle cx="577.0" cy="48" r="10" fill="#2563eb"/>
<text x="577.0" y="84" class="h1" text-anchor="middle">质量提升</text>
<text x="577.0" y="104" class="tiny" text-anchor="middle">任务完成度提高</text>
<circle cx="765.0" cy="48" r="15" fill="#2563eb" opacity="0.18"/>
<circle cx="765.0" cy="48" r="10" fill="#2563eb"/>
<text x="765.0" y="84" class="h1" text-anchor="middle">系统稳定</text>
<text x="765.0" y="104" class="tiny" text-anchor="middle">柔性应对力提升</text>
<circle cx="953.0" cy="48" r="15" fill="#2563eb" opacity="0.18"/>
<circle cx="953.0" cy="48" r="10" fill="#2563eb"/>
<text x="953.0" y="84" class="h1" text-anchor="middle">决策智能</text>
<text x="953.0" y="104" class="tiny" text-anchor="middle">数据驱动决策</text>
<!-- 保障体系 -->
<rect x="1130" y="16" width="130" height="1058" rx="10" fill="#dbe7ff" stroke="#9db6e8" stroke-width="1"/>
<rect x="1138" y="26" width="114" height="36" rx="6" fill="#1e40af"/>
<text x="1195.0" y="49" class="white" text-anchor="middle">保障体系</text>
<circle cx="1195.0" cy="94.0" r="13" fill="#2563eb" opacity="0.18"/>
<circle cx="1195.0" cy="94.0" r="8" fill="#2563eb"/>
<text x="1195.0" y="124.0" class="h2" text-anchor="middle">数据安全</text>
<text x="1195.0" y="142.0" class="tiny" text-anchor="middle">· 数据脱敏</text>
<text x="1195.0" y="158.0" class="tiny" text-anchor="middle">· 访问控制</text>
<text x="1195.0" y="174.0" class="tiny" text-anchor="middle">· 安全沙箱</text>
<circle cx="1195.0" cy="343.5" r="13" fill="#2563eb" opacity="0.18"/>
<circle cx="1195.0" cy="343.5" r="8" fill="#2563eb"/>
<text x="1195.0" y="373.5" class="h2" text-anchor="middle">权限管理</text>
<text x="1195.0" y="391.5" class="tiny" text-anchor="middle">· 角色权限</text>
<text x="1195.0" y="407.5" class="tiny" text-anchor="middle">· 细粒度控制</text>
<circle cx="1195.0" cy="593.0" r="13" fill="#2563eb" opacity="0.18"/>
<circle cx="1195.0" cy="593.0" r="8" fill="#2563eb"/>
<text x="1195.0" y="623.0" class="h2" text-anchor="middle">运维监控</text>
<text x="1195.0" y="641.0" class="tiny" text-anchor="middle">· 性能监控</text>
<text x="1195.0" y="657.0" class="tiny" text-anchor="middle">· 日志审计</text>
<text x="1195.0" y="673.0" class="tiny" text-anchor="middle">· 告警管理</text>
<circle cx="1195.0" cy="842.5" r="13" fill="#2563eb" opacity="0.18"/>
<circle cx="1195.0" cy="842.5" r="8" fill="#2563eb"/>
<text x="1195.0" y="872.5" class="h2" text-anchor="middle">持续优化</text>
<text x="1195.0" y="890.5" class="tiny" text-anchor="middle">· 效果评估</text>
<text x="1195.0" y="906.5" class="tiny" text-anchor="middle">· 模型优化</text>
<text x="1195.0" y="922.5" class="tiny" text-anchor="middle">· 能力迭代</text>
<!-- 应用层 -->
<rect x="8" y="138" width="1114" height="280" rx="10" fill="#eef4ff" stroke="#b6c9ef" stroke-width="1"/>
<rect x="16" y="158" width="70" height="200" rx="8" fill="#2563eb"/>
<text x="51" y="238" class="lbl-main" text-anchor="middle">应用层</text>
<text x="51" y="258" class="lbl-sub" text-anchor="middle">智能体阵列</text>
<rect x="104" y="154" width="150" height="168" rx="8" fill="#ffffff" stroke="#d0d7e2" stroke-width="1"/>
<rect x="104" y="154" width="150" height="6" rx="3" fill="#1d4ed8"/>
<circle cx="179.0" cy="178" r="12" fill="#1d4ed8" opacity="0.18"/>
<circle cx="179.0" cy="178" r="7" fill="#1d4ed8"/>
<text x="179.0" y="206" class="h2" text-anchor="middle">登录认证 Agent</text>
<text x="179.0" y="230" class="body" text-anchor="middle">· 认证知识查询</text>
<text x="179.0" y="248" class="body" text-anchor="middle">· 认证日志分析</text>
<text x="179.0" y="266" class="body" text-anchor="middle">· 业务问题处理</text>
<text x="179.0" y="284" class="tiny" text-anchor="middle">· 持续进化处理问题的能力</text>
<rect x="264" y="154" width="150" height="168" rx="8" fill="#ffffff" stroke="#d0d7e2" stroke-width="1"/>
<rect x="264" y="154" width="150" height="6" rx="3" fill="#0891b2"/>
<circle cx="339.0" cy="178" r="12" fill="#0891b2" opacity="0.18"/>
<circle cx="339.0" cy="178" r="7" fill="#0891b2"/>
<text x="339.0" y="206" class="h2" text-anchor="middle">支付业务 Agent</text>
<text x="339.0" y="230" class="body" text-anchor="middle">· 支付知识查询</text>
<text x="339.0" y="248" class="body" text-anchor="middle">· 支付日志分析</text>
<text x="339.0" y="266" class="body" text-anchor="middle">· 订单补单</text>
<text x="339.0" y="284" class="body" text-anchor="middle">· 退款问题处理</text>
<rect x="424" y="154" width="150" height="168" rx="8" fill="#ffffff" stroke="#d0d7e2" stroke-width="1"/>
<rect x="424" y="154" width="150" height="6" rx="3" fill="#7c3aed"/>
<circle cx="499.0" cy="178" r="12" fill="#7c3aed" opacity="0.18"/>
<circle cx="499.0" cy="178" r="7" fill="#7c3aed"/>
<text x="499.0" y="206" class="h2" text-anchor="middle">部门业务对接 Agent</text>
<text x="499.0" y="230" class="body" text-anchor="middle">· 部门能力查询</text>
<text x="499.0" y="248" class="body" text-anchor="middle">· 能力对接指导</text>
<text x="499.0" y="266" class="body" text-anchor="middle">· 对接异常排查</text>
<text x="499.0" y="284" class="body" text-anchor="middle">· 持续集成、持续进化</text>
<rect x="584" y="154" width="150" height="168" rx="8" fill="#ffffff" stroke="#d0d7e2" stroke-width="1"/>
<rect x="584" y="154" width="150" height="6" rx="3" fill="#ea580c"/>
<circle cx="659.0" cy="178" r="12" fill="#ea580c" opacity="0.18"/>
<circle cx="659.0" cy="178" r="7" fill="#ea580c"/>
<text x="659.0" y="206" class="h2" text-anchor="middle">设备运维 Agent</text>
<text x="659.0" y="230" class="body" text-anchor="middle">· 设备监控</text>
<text x="659.0" y="248" class="body" text-anchor="middle">· 故障预测</text>
<text x="659.0" y="266" class="body" text-anchor="middle">· 修复建议</text>
<text x="659.0" y="284" class="body" text-anchor="middle">· 工单生成</text>
<rect x="744" y="154" width="150" height="168" rx="8" fill="#ffffff" stroke="#d0d7e2" stroke-width="1"/>
<rect x="744" y="154" width="150" height="6" rx="3" fill="#16a34a"/>
<circle cx="819.0" cy="178" r="12" fill="#16a34a" opacity="0.18"/>
<circle cx="819.0" cy="178" r="7" fill="#16a34a"/>
<text x="819.0" y="206" class="h2" text-anchor="middle">质量分析 Agent</text>
<text x="819.0" y="230" class="body" text-anchor="middle">· 缺陷识别</text>
<text x="819.0" y="248" class="body" text-anchor="middle">· 原因分析</text>
<text x="819.0" y="266" class="body" text-anchor="middle">· 质量追溯</text>
<text x="819.0" y="284" class="body" text-anchor="middle">· 改进建议</text>
<rect x="904" y="154" width="150" height="168" rx="8" fill="#f7f9fc" stroke="#60a5fa" stroke-width="1.5" stroke-dasharray="5 4"/>
<text x="979.0" y="188" class="h2" text-anchor="middle">更多 Agent</text>
<text x="979.0" y="228" class="body" text-anchor="middle">风控 Agent</text>
<text x="979.0" y="248" class="body" text-anchor="middle">财务 Agent</text>
<text x="979.0" y="268" class="body" text-anchor="middle">前端 Agent</text>
<text x="979.0" y="288" class="body" text-anchor="middle">...</text>
<text x="136" y="384" class="flow" text-anchor="middle">自然语言交互</text>
<line x1="226" y1="376" x2="266" y2="376" stroke="#3b82f6" stroke-width="2" marker-end="url(#arr)"/>
<text x="366" y="384" class="flow" text-anchor="middle">任务理解与规划</text>
<line x1="456" y1="376" x2="496" y2="376" stroke="#3b82f6" stroke-width="2" marker-end="url(#arr)"/>
<text x="596" y="384" class="flow" text-anchor="middle">调用工具与知识</text>
<line x1="686" y1="376" x2="726" y2="376" stroke="#3b82f6" stroke-width="2" marker-end="url(#arr)"/>
<text x="826" y="384" class="flow" text-anchor="middle">执行任务与反馈</text>
<!-- 能力层 -->
<rect x="8" y="430" width="1114" height="270" rx="10" fill="#e8f8ef" stroke="#9ed4b0" stroke-width="1"/>
<rect x="16" y="460" width="70" height="200" rx="8" fill="#16a34a"/>
<text x="51" y="530" class="lbl-main" text-anchor="middle">能力层</text>
<text x="51" y="550" class="lbl-sub" text-anchor="middle">AI Agent</text>
<text x="51" y="568" class="lbl-sub" text-anchor="middle">核心能力</text>
<text x="585.0" y="458" class="sec" text-anchor="middle">AI Agent 核心能力引擎</text>
<rect x="104" y="472" width="145" height="118" rx="8" fill="#ffffff" stroke="#86efac" stroke-width="1"/>
<circle cx="176.5" cy="492" r="12" fill="#16a34a" opacity="0.18"/>
<circle cx="176.5" cy="492" r="7" fill="#16a34a"/>
<text x="176.5" y="520" class="h2" text-anchor="middle">意图理解</text>
<text x="176.5" y="542" class="tiny" text-anchor="middle">理解业务需求</text>
<text x="176.5" y="558" class="tiny" text-anchor="middle">识别任务目标</text>
<rect x="261" y="472" width="145" height="118" rx="8" fill="#ffffff" stroke="#86efac" stroke-width="1"/>
<circle cx="333.5" cy="492" r="12" fill="#16a34a" opacity="0.18"/>
<circle cx="333.5" cy="492" r="7" fill="#16a34a"/>
<text x="333.5" y="520" class="h2" text-anchor="middle">知识检索</text>
<text x="333.5" y="542" class="tiny" text-anchor="middle">企业知识库检索</text>
<text x="333.5" y="558" class="tiny" text-anchor="middle">文档/规则/案例</text>
<rect x="418" y="472" width="145" height="118" rx="8" fill="#ffffff" stroke="#86efac" stroke-width="1"/>
<circle cx="490.5" cy="492" r="12" fill="#16a34a" opacity="0.18"/>
<circle cx="490.5" cy="492" r="7" fill="#16a34a"/>
<text x="490.5" y="520" class="h2" text-anchor="middle">推理决策</text>
<text x="490.5" y="542" class="tiny" text-anchor="middle">数据分析推理</text>
<text x="490.5" y="558" class="tiny" text-anchor="middle">生成最优方案</text>
<rect x="575" y="472" width="145" height="118" rx="8" fill="#ffffff" stroke="#86efac" stroke-width="1"/>
<circle cx="647.5" cy="492" r="12" fill="#16a34a" opacity="0.18"/>
<circle cx="647.5" cy="492" r="7" fill="#16a34a"/>
<text x="647.5" y="520" class="h2" text-anchor="middle">工具调用</text>
<text x="647.5" y="542" class="tiny" text-anchor="middle">调用系统API</text>
<text x="647.5" y="558" class="tiny" text-anchor="middle">执行操作指令</text>
<rect x="732" y="472" width="145" height="118" rx="8" fill="#ffffff" stroke="#86efac" stroke-width="1"/>
<circle cx="804.5" cy="492" r="12" fill="#16a34a" opacity="0.18"/>
<circle cx="804.5" cy="492" r="7" fill="#16a34a"/>
<text x="804.5" y="520" class="h2" text-anchor="middle">工作流编排</text>
<text x="804.5" y="542" class="tiny" text-anchor="middle">多步骤任务拆解</text>
<text x="804.5" y="558" class="tiny" text-anchor="middle">流程自动化执行</text>
<rect x="889" y="472" width="145" height="118" rx="8" fill="#ffffff" stroke="#86efac" stroke-width="1"/>
<circle cx="961.5" cy="492" r="12" fill="#16a34a" opacity="0.18"/>
<circle cx="961.5" cy="492" r="7" fill="#16a34a"/>
<text x="961.5" y="520" class="h2" text-anchor="middle">学习优化</text>
<text x="961.5" y="542" class="tiny" text-anchor="middle">持续学习反馈</text>
<text x="961.5" y="558" class="tiny" text-anchor="middle">不断优化能力</text>
<text x="104" y="615" class="h2">智能体运行框架</text>
<rect x="104" y="630" width="140" height="36" rx="6" fill="#22c55e"/>
<text x="174.0" y="653" class="wsm" text-anchor="middle">大模型 (LLM)</text>
<rect x="254" y="630" width="130" height="36" rx="6" fill="#22c55e"/>
<text x="319.0" y="653" class="wsm" text-anchor="middle">RAG知识增强</text>
<rect x="394" y="630" width="210" height="36" rx="6" fill="#22c55e"/>
<text x="499.0" y="653" class="wsm" text-anchor="middle">Agent框架 (规划/记忆/行动)</text>
<rect x="614" y="630" width="170" height="36" rx="6" fill="#22c55e"/>
<text x="699.0" y="653" class="wsm" text-anchor="middle">扩展插件 (skill/工具集)</text>
<rect x="794" y="630" width="150" height="36" rx="6" fill="#22c55e"/>
<text x="869.0" y="653" class="wsm" text-anchor="middle">权限与安全控制</text>
<!-- 数据层 -->
<rect x="8" y="712" width="1114" height="210" rx="10" fill="#fff4e8" stroke="#f0c28a" stroke-width="1"/>
<rect x="16" y="732" width="70" height="160" rx="8" fill="#ea580c"/>
<text x="51" y="792" class="lbl-main" text-anchor="middle">数据层</text>
<text x="51" y="812" class="lbl-sub" text-anchor="middle">企业数据资产</text>
<rect x="104" y="728" width="175" height="110" rx="8" fill="#ffffff" stroke="#fdba74" stroke-width="1"/>
<circle cx="191.5" cy="750" r="11" fill="#ea580c" opacity="0.18"/>
<circle cx="191.5" cy="750" r="6" fill="#ea580c"/>
<text x="191.5" y="778" class="h2" text-anchor="middle">认证数据</text>
<text x="191.5" y="800" class="tiny" text-anchor="middle">游戏 / 下载器 / 官方APP</text>
<text x="191.5" y="818" class="tiny" text-anchor="middle">登录 / 注册 / 注销 / 实名</text>
<rect x="293" y="728" width="175" height="110" rx="8" fill="#ffffff" stroke="#fdba74" stroke-width="1"/>
<circle cx="380.5" cy="750" r="11" fill="#ea580c" opacity="0.18"/>
<circle cx="380.5" cy="750" r="6" fill="#ea580c"/>
<text x="380.5" y="778" class="h2" text-anchor="middle">支付数据</text>
<text x="380.5" y="800" class="tiny" text-anchor="middle">游戏内充值 / 商城 / 官方APP</text>
<text x="380.5" y="818" class="tiny" text-anchor="middle">支付 / 退款 / 消耗</text>
<rect x="482" y="728" width="175" height="110" rx="8" fill="#ffffff" stroke="#fdba74" stroke-width="1"/>
<circle cx="569.5" cy="750" r="11" fill="#ea580c" opacity="0.18"/>
<circle cx="569.5" cy="750" r="6" fill="#ea580c"/>
<text x="569.5" y="778" class="h2" text-anchor="middle">风控数据</text>
<text x="569.5" y="800" class="tiny" text-anchor="middle">游戏 / 官方网站 / 官方APP</text>
<text x="569.5" y="818" class="tiny" text-anchor="middle">登录行为 / 支付行为 / 消耗行为</text>
<rect x="671" y="728" width="175" height="110" rx="8" fill="#ffffff" stroke="#fdba74" stroke-width="1"/>
<circle cx="758.5" cy="750" r="11" fill="#ea580c" opacity="0.18"/>
<circle cx="758.5" cy="750" r="6" fill="#ea580c"/>
<text x="758.5" y="778" class="h2" text-anchor="middle">社区数据</text>
<text x="758.5" y="800" class="tiny" text-anchor="middle">内容数据 / 互动数据 / 行为数据</text>
<text x="758.5" y="818" class="tiny" text-anchor="middle">发帖 / 评论 / 点赞</text>
<rect x="860" y="728" width="175" height="110" rx="8" fill="#ffffff" stroke="#fdba74" stroke-width="1"/>
<circle cx="947.5" cy="750" r="11" fill="#ea580c" opacity="0.18"/>
<circle cx="947.5" cy="750" r="6" fill="#ea580c"/>
<text x="947.5" y="778" class="h2" text-anchor="middle">计费数据</text>
<text x="947.5" y="800" class="tiny" text-anchor="middle">游戏充值 / 游戏内消耗 / 风控拦截</text>
<text x="947.5" y="818" class="tiny" text-anchor="middle">充值 / 消耗 / 冻结</text>
<rect x="104" y="852" width="978" height="40" rx="8" fill="#f97316"/>
<text x="585.0" y="877" class="white" text-anchor="middle">数据治理与集成平台（数据清洗 / 标准化 / 主数据管理 / 数据安全）</text>
<!-- 基础层 -->
<rect x="8" y="934" width="1114" height="140" rx="10" fill="#f3eefc" stroke="#c4b5e0" stroke-width="1"/>
<rect x="16" y="954" width="70" height="100" rx="8" fill="#7c3aed"/>
<text x="51" y="992" class="lbl-main" text-anchor="middle">基础层</text>
<text x="51" y="1012" class="lbl-sub" text-anchor="middle">技术支撑</text>
<rect x="104" y="954" width="175" height="100" rx="8" fill="#ffffff" stroke="#c4b5fd" stroke-width="1"/>
<circle cx="191.5" cy="976" r="11" fill="#7c3aed" opacity="0.18"/>
<circle cx="191.5" cy="976" r="6" fill="#7c3aed"/>
<text x="191.5" y="1006" class="h2" text-anchor="middle">云计算 / 私有化部署</text>
<text x="191.5" y="1028" class="tiny" text-anchor="middle">弹性计算 / 高可用</text>
<rect x="293" y="954" width="175" height="100" rx="8" fill="#ffffff" stroke="#c4b5fd" stroke-width="1"/>
<circle cx="380.5" cy="976" r="11" fill="#7c3aed" opacity="0.18"/>
<circle cx="380.5" cy="976" r="6" fill="#7c3aed"/>
<text x="380.5" y="1006" class="h2" text-anchor="middle">大模型服务</text>
<text x="380.5" y="1028" class="tiny" text-anchor="middle">通用大模型 / 行业模型</text>
<rect x="482" y="954" width="175" height="100" rx="8" fill="#ffffff" stroke="#c4b5fd" stroke-width="1"/>
<circle cx="569.5" cy="976" r="11" fill="#7c3aed" opacity="0.18"/>
<circle cx="569.5" cy="976" r="6" fill="#7c3aed"/>
<text x="569.5" y="1006" class="h2" text-anchor="middle">向量数据库</text>
<text x="569.5" y="1028" class="tiny" text-anchor="middle">知识向量存储 / 检索</text>
<rect x="671" y="954" width="175" height="100" rx="8" fill="#ffffff" stroke="#c4b5fd" stroke-width="1"/>
<circle cx="758.5" cy="976" r="11" fill="#7c3aed" opacity="0.18"/>
<circle cx="758.5" cy="976" r="6" fill="#7c3aed"/>
<text x="758.5" y="1006" class="h2" text-anchor="middle">中间件 / API网关</text>
<text x="758.5" y="1028" class="tiny" text-anchor="middle">系统集成 / 接口管理</text>
<rect x="860" y="954" width="175" height="100" rx="8" fill="#ffffff" stroke="#c4b5fd" stroke-width="1"/>
<circle cx="947.5" cy="976" r="11" fill="#7c3aed" opacity="0.18"/>
<circle cx="947.5" cy="976" r="6" fill="#7c3aed"/>
<text x="947.5" y="1006" class="h2" text-anchor="middle">安全防护</text>
<text x="947.5" y="1028" class="tiny" text-anchor="middle">安全沙箱 / 权限管理</text>
</svg>